<svg width="480" height="480" xmlns="http://www.w3.org/2000/svg">

 <g>
  <title>background</title>
  <rect fill="none" id="canvas_background" height="402" width="582" y="-1" x="-1"/>
 </g>
 <g>
  <title>Layer 1</title>
  <g id="svg_1">
   <g id="svg_2">
    <path id="svg_3" d="m440,0l-336,0c-22.08,0.026 -39.974,17.92 -40,40l0,376l-56,0c-4.418,0 -8,3.582 -8,8l0,16c0.026,22.08 17.92,39.974 40,40l336,0c22.08,-0.026 39.974,-17.92 40,-40l0,-188.688l49.656,-49.656c9.751,-9.751 9.751,-25.561 0,-35.312s-25.561,-9.751 -35.312,0l-14.344,14.344l0,-116.688l56,0c4.418,0 8,-3.582 8,-8l0,-16c-0.026,-22.08 -17.92,-39.974 -40,-40zm-400,464c-13.255,0 -24,-10.745 -24,-24l0,-8l320,0l0,8c0.018,2.493 0.27,4.978 0.752,7.424c0.144,0.8 0.376,1.48 0.56,2.224c0.397,1.629 0.894,3.232 1.488,4.8c0.312,0.8 0.648,1.552 1.008,2.32c0.682,1.458 1.452,2.874 2.304,4.24c0.416,0.672 0.8,1.352 1.272,1.992c0.224,0.328 0.392,0.688 0.632,1l-304.016,0zm360,-24c0,13.255 -10.745,24 -24,24s-24,-10.745 -24,-24l0,-16c0,-4.418 -3.582,-8 -8,-8l-264,0l0,-376c0,-13.255 10.745,-24 24,-24l304,0c-0.24,0.312 -0.408,0.672 -0.632,1c-0.456,0.64 -0.856,1.32 -1.272,1.992c-0.852,1.366 -1.622,2.782 -2.304,4.24c-0.36,0.8 -0.696,1.536 -1.008,2.32c-0.594,1.568 -1.091,3.171 -1.488,4.8c-0.184,0.744 -0.416,1.464 -0.56,2.224c-0.477,2.446 -0.723,4.932 -0.736,7.424l0,156.688l-101.656,101.656c-1.026,1.026 -1.753,2.312 -2.104,3.72l-8,32c-0.68,2.725 0.119,5.606 2.104,7.592c0.675,0.649 1.461,1.172 2.32,1.544c0.208,0.096 0.4,0.184 0.616,0.264c0.854,0.326 1.758,0.505 2.672,0.528l0.048,0c0.653,-0.001 1.303,-0.081 1.936,-0.24l32,-8c1.408,-0.351 2.694,-1.078 3.72,-2.104l66.344,-66.336l0,172.688zm41.656,-262.344c3.55,-3.391 9.138,-3.391 12.688,0c3.497,3.506 3.497,9.182 0,12.688l-6.344,6.344l-12.688,-12.688l6.344,-6.344zm-17.656,17.656l12.688,12.688l-112.8,112.8l-16.912,4.232l4.232,-16.912l112.792,-112.808zm40,-147.312l-48,0l0,-8c0,-13.255 10.745,-24 24,-24s24,10.745 24,24l0,8z"/>
   </g>
  </g>
  <g id="svg_4">
   <g id="svg_5">
    <rect id="svg_6" height="16" width="176" y="48" x="152"/>
   </g>
  </g>
  <g id="svg_7">
   <g id="svg_8">
    <path id="svg_9" d="m178.344,82.344l-14.664,14.664c-1.124,-0.637 -2.389,-0.983 -3.68,-1.008l-40,0c-4.418,0 -8,3.582 -8,8l0,40c0,4.418 3.582,8 8,8l40,0c4.418,0 8,-3.582 8,-8l0,-28.688l21.656,-21.656l-11.312,-11.312zm-26.344,53.656l-24,0l0,-24l20.688,0l-10.344,10.344l11.312,11.312l2.344,-2.344l0,4.688z"/>
   </g>
  </g>
  <g id="svg_10">
   <g id="svg_11">
    <rect id="svg_12" height="16" width="168" y="96" x="200"/>
   </g>
  </g>
  <g id="svg_13">
   <g id="svg_14">
    <rect id="svg_15" height="16" width="136" y="128" x="200"/>
   </g>
  </g>
  <g id="svg_16">
   <g id="svg_17">
    <path id="svg_18" d="m178.344,162.344l-14.664,14.664c-1.124,-0.637 -2.389,-0.983 -3.68,-1.008l-40,0c-4.418,0 -8,3.582 -8,8l0,40c0,4.418 3.582,8 8,8l40,0c4.418,0 8,-3.582 8,-8l0,-28.688l21.656,-21.656l-11.312,-11.312zm-26.344,53.656l-24,0l0,-24l20.688,0l-10.344,10.344l11.312,11.312l2.344,-2.344l0,4.688z"/>
   </g>
  </g>
  <g id="svg_19">
   <g id="svg_20">
    <rect id="svg_21" height="16" width="168" y="176" x="200"/>
   </g>
  </g>
  <g id="svg_22">
   <g id="svg_23">
    <rect id="svg_24" height="16" width="136" y="208" x="200"/>
   </g>
  </g>
  <g id="svg_25">
   <g id="svg_26">
    <path id="svg_27" d="m178.344,242.344l-14.664,14.664c-1.124,-0.637 -2.389,-0.983 -3.68,-1.008l-40,0c-4.418,0 -8,3.582 -8,8l0,40c0,4.418 3.582,8 8,8l40,0c4.418,0 8,-3.582 8,-8l0,-28.688l21.656,-21.656l-11.312,-11.312zm-26.344,53.656l-24,0l0,-24l20.688,0l-10.344,10.344l11.312,11.312l2.344,-2.344l0,4.688z"/>
   </g>
  </g>
  <g id="svg_28">
   <g id="svg_29">
    <rect id="svg_30" height="16" width="104" y="256" x="200"/>
   </g>
  </g>
  <g id="svg_31">
   <g id="svg_32">
    <rect id="svg_33" height="16" width="72" y="288" x="200"/>
   </g>
  </g>
  <g id="svg_34">
   <g id="svg_35">
    <path id="svg_36" d="m178.344,322.344l-14.664,14.664c-1.124,-0.637 -2.389,-0.983 -3.68,-1.008l-40,0c-4.418,0 -8,3.582 -8,8l0,40c0,4.418 3.582,8 8,8l40,0c4.418,0 8,-3.582 8,-8l0,-28.688l21.656,-21.656l-11.312,-11.312zm-26.344,53.656l-24,0l0,-24l20.688,0l-10.344,10.344l11.312,11.312l2.344,-2.344l0,4.688z"/>
   </g>
  </g>
  <g id="svg_37">
   <g id="svg_38">
    <rect id="svg_39" height="16" width="72" y="336" x="200"/>
   </g>
  </g>
  <g id="svg_40">
   <g id="svg_41">
    <rect id="svg_42" height="16" width="136" y="368" x="200"/>
   </g>
  </g>
  <g id="svg_43"/>
  <g id="svg_44"/>
  <g id="svg_45"/>
  <g id="svg_46"/>
  <g id="svg_47"/>
  <g id="svg_48"/>
  <g id="svg_49"/>
  <g id="svg_50"/>
  <g id="svg_51"/>
  <g id="svg_52"/>
  <g id="svg_53"/>
  <g id="svg_54"/>
  <g id="svg_55"/>
  <g id="svg_56"/>
  <g id="svg_57"/>
  <path id="svg_59" d="m476.963133,137.129082l-53.494413,-53.161015l53.48469,-53.161015l-27.495856,-27.343815l-53.494413,53.161015l-53.494413,-53.161015l-27.495856,27.343815l53.48469,53.161015l-53.494413,53.161015l27.515302,27.334153l53.48469,-53.161015l53.48469,53.161015" stroke-opacity="null" stroke-width="1.5" stroke="#000" fill="#ed0721"/>
 </g>
</svg>